<mxfile host="Electron" modified="2023-09-11T07:56:26.994Z" agent="Mozilla/5.0 (X11; Linux x86_64) AppleWebKit/537.36 (KHTML, like Gecko) draw.io/21.3.7 Chrome/112.0.5615.204 Electron/24.5.0 Safari/537.36" etag="FJOb4G7mkE_5X1YUOMHN" version="21.3.7" type="device">
  <diagram name="Page-1" id="mZ4DdQkOI19tocJpFo72">
    <mxGraphModel dx="2284" dy="843" grid="1" gridSize="10" guides="1" tooltips="1" connect="1" arrows="1" fold="1" page="1" pageScale="1" pageWidth="850" pageHeight="1100" math="0" shadow="0">
      <root>
        <mxCell id="0" />
        <mxCell id="1" parent="0" />
        <mxCell id="zg37p6ZAchi9JQ2rwwaJ-1" value="" style="rounded=0;whiteSpace=wrap;html=1;" vertex="1" parent="1">
          <mxGeometry x="30" y="150" width="210" height="850" as="geometry" />
        </mxCell>
        <mxCell id="zg37p6ZAchi9JQ2rwwaJ-2" value="" style="rounded=0;whiteSpace=wrap;html=1;" vertex="1" parent="1">
          <mxGeometry x="240" y="150" width="960" height="510" as="geometry" />
        </mxCell>
        <mxCell id="zg37p6ZAchi9JQ2rwwaJ-3" value="" style="rounded=0;whiteSpace=wrap;html=1;" vertex="1" parent="1">
          <mxGeometry x="240" y="660" width="960" height="340" as="geometry" />
        </mxCell>
        <mxCell id="zg37p6ZAchi9JQ2rwwaJ-4" value="" style="rounded=0;whiteSpace=wrap;html=1;" vertex="1" parent="1">
          <mxGeometry x="990" y="210" width="190" height="200" as="geometry" />
        </mxCell>
        <mxCell id="zg37p6ZAchi9JQ2rwwaJ-5" value="Demo16( ) { }" style="rounded=0;whiteSpace=wrap;html=1;fillColor=#f8cecc;strokeColor=#b85450;fillStyle=hatch;" vertex="1" parent="1">
          <mxGeometry x="990" y="210" width="190" height="40" as="geometry" />
        </mxCell>
        <mxCell id="zg37p6ZAchi9JQ2rwwaJ-6" value="PSVM" style="ellipse;whiteSpace=wrap;html=1;fontSize=16;" vertex="1" parent="1">
          <mxGeometry x="1025" y="290" width="120" height="80" as="geometry" />
        </mxCell>
        <mxCell id="zg37p6ZAchi9JQ2rwwaJ-7" value="" style="rounded=0;whiteSpace=wrap;html=1;" vertex="1" parent="1">
          <mxGeometry x="750" y="210" width="210" height="400" as="geometry" />
        </mxCell>
        <mxCell id="zg37p6ZAchi9JQ2rwwaJ-8" value="" style="rounded=0;whiteSpace=wrap;html=1;" vertex="1" parent="1">
          <mxGeometry x="510" y="210" width="210" height="400" as="geometry" />
        </mxCell>
        <mxCell id="zg37p6ZAchi9JQ2rwwaJ-9" value="" style="rounded=0;whiteSpace=wrap;html=1;" vertex="1" parent="1">
          <mxGeometry x="290" y="210" width="210" height="400" as="geometry" />
        </mxCell>
        <mxCell id="zg37p6ZAchi9JQ2rwwaJ-10" value="MyC Object class" style="rounded=0;whiteSpace=wrap;html=1;" vertex="1" parent="1">
          <mxGeometry x="750" y="580" width="210" height="30" as="geometry" />
        </mxCell>
        <mxCell id="zg37p6ZAchi9JQ2rwwaJ-11" value="MyB Object class" style="rounded=0;whiteSpace=wrap;html=1;" vertex="1" parent="1">
          <mxGeometry x="510" y="580" width="210" height="30" as="geometry" />
        </mxCell>
        <mxCell id="zg37p6ZAchi9JQ2rwwaJ-12" value="MyA Object class" style="rounded=0;whiteSpace=wrap;html=1;" vertex="1" parent="1">
          <mxGeometry x="290" y="580" width="210" height="30" as="geometry" />
        </mxCell>
        <mxCell id="zg37p6ZAchi9JQ2rwwaJ-14" value="MyC( ) { }" style="rounded=0;whiteSpace=wrap;html=1;fillColor=#f8cecc;strokeColor=#b85450;fillStyle=hatch;" vertex="1" parent="1">
          <mxGeometry x="750" y="210" width="210" height="40" as="geometry" />
        </mxCell>
        <mxCell id="zg37p6ZAchi9JQ2rwwaJ-15" value="MyA( ) { }" style="rounded=0;whiteSpace=wrap;html=1;fillColor=#f8cecc;strokeColor=#b85450;fillStyle=hatch;" vertex="1" parent="1">
          <mxGeometry x="290" y="210" width="210" height="40" as="geometry" />
        </mxCell>
        <mxCell id="zg37p6ZAchi9JQ2rwwaJ-16" value="MyB( ) { }" style="rounded=0;whiteSpace=wrap;html=1;fillColor=#f8cecc;strokeColor=#b85450;fillStyle=hatch;" vertex="1" parent="1">
          <mxGeometry x="510" y="210" width="210" height="40" as="geometry" />
        </mxCell>
        <mxCell id="zg37p6ZAchi9JQ2rwwaJ-17" value="int x;" style="rounded=0;whiteSpace=wrap;html=1;fillColor=#f8cecc;strokeColor=#b85450;fillStyle=hatch;" vertex="1" parent="1">
          <mxGeometry x="290" y="250" width="210" height="40" as="geometry" />
        </mxCell>
        <mxCell id="zg37p6ZAchi9JQ2rwwaJ-19" value="static int x = 10" style="rounded=0;whiteSpace=wrap;html=1;fillStyle=hatch;fillColor=#d5e8d4;strokeColor=#82b366;" vertex="1" parent="1">
          <mxGeometry x="510" y="250" width="210" height="40" as="geometry" />
        </mxCell>
        <mxCell id="zg37p6ZAchi9JQ2rwwaJ-25" style="edgeStyle=orthogonalEdgeStyle;rounded=0;orthogonalLoop=1;jettySize=auto;html=1;entryX=1;entryY=0.5;entryDx=0;entryDy=0;" edge="1" parent="1" source="zg37p6ZAchi9JQ2rwwaJ-20" target="zg37p6ZAchi9JQ2rwwaJ-21">
          <mxGeometry relative="1" as="geometry" />
        </mxCell>
        <mxCell id="zg37p6ZAchi9JQ2rwwaJ-20" value="0XA10" style="rounded=0;whiteSpace=wrap;html=1;fillColor=#ffe6cc;strokeColor=#d79b00;" vertex="1" parent="1">
          <mxGeometry x="990" y="180" width="140" height="30" as="geometry" />
        </mxCell>
        <mxCell id="zg37p6ZAchi9JQ2rwwaJ-26" style="edgeStyle=orthogonalEdgeStyle;rounded=0;orthogonalLoop=1;jettySize=auto;html=1;entryX=1;entryY=0.5;entryDx=0;entryDy=0;" edge="1" parent="1" source="zg37p6ZAchi9JQ2rwwaJ-21" target="zg37p6ZAchi9JQ2rwwaJ-23">
          <mxGeometry relative="1" as="geometry" />
        </mxCell>
        <mxCell id="zg37p6ZAchi9JQ2rwwaJ-21" value="0XA14" style="rounded=0;whiteSpace=wrap;html=1;fillColor=#ffe6cc;strokeColor=#d79b00;" vertex="1" parent="1">
          <mxGeometry x="750" y="180" width="140" height="30" as="geometry" />
        </mxCell>
        <mxCell id="zg37p6ZAchi9JQ2rwwaJ-27" style="edgeStyle=orthogonalEdgeStyle;rounded=0;orthogonalLoop=1;jettySize=auto;html=1;" edge="1" parent="1" source="zg37p6ZAchi9JQ2rwwaJ-23" target="zg37p6ZAchi9JQ2rwwaJ-24">
          <mxGeometry relative="1" as="geometry" />
        </mxCell>
        <mxCell id="zg37p6ZAchi9JQ2rwwaJ-23" value="0XA16" style="rounded=0;whiteSpace=wrap;html=1;fillColor=#ffe6cc;strokeColor=#d79b00;" vertex="1" parent="1">
          <mxGeometry x="510" y="180" width="140" height="30" as="geometry" />
        </mxCell>
        <mxCell id="zg37p6ZAchi9JQ2rwwaJ-24" value="0XA19" style="rounded=0;whiteSpace=wrap;html=1;fillColor=#ffe6cc;strokeColor=#d79b00;" vertex="1" parent="1">
          <mxGeometry x="290" y="180" width="140" height="30" as="geometry" />
        </mxCell>
        <mxCell id="zg37p6ZAchi9JQ2rwwaJ-31" value="" style="rounded=0;whiteSpace=wrap;html=1;strokeColor=#DB2354;strokeWidth=4;" vertex="1" parent="1">
          <mxGeometry x="30" y="960" width="210" height="40" as="geometry" />
        </mxCell>
        <mxCell id="zg37p6ZAchi9JQ2rwwaJ-32" value="MyB&amp;nbsp; ref =&amp;nbsp;" style="rounded=0;whiteSpace=wrap;html=1;strokeColor=#DB2354;strokeWidth=4;" vertex="1" parent="1">
          <mxGeometry x="30" y="920" width="210" height="40" as="geometry" />
        </mxCell>
        <mxCell id="zg37p6ZAchi9JQ2rwwaJ-33" value="String [ ] args =&amp;nbsp;" style="rounded=0;whiteSpace=wrap;html=1;strokeColor=#DB2354;strokeWidth=4;" vertex="1" parent="1">
          <mxGeometry x="30" y="880" width="210" height="40" as="geometry" />
        </mxCell>
        <mxCell id="zg37p6ZAchi9JQ2rwwaJ-34" value="RCP = 0XA10" style="rounded=0;whiteSpace=wrap;html=1;strokeColor=#DB2354;strokeWidth=4;" vertex="1" parent="1">
          <mxGeometry x="30" y="840" width="210" height="40" as="geometry" />
        </mxCell>
        <mxCell id="zg37p6ZAchi9JQ2rwwaJ-35" value="" style="rounded=0;whiteSpace=wrap;html=1;" vertex="1" parent="1">
          <mxGeometry x="680" y="720" width="270" height="260" as="geometry" />
        </mxCell>
        <mxCell id="zg37p6ZAchi9JQ2rwwaJ-36" value="" style="rounded=0;whiteSpace=wrap;html=1;" vertex="1" parent="1">
          <mxGeometry x="680" y="720" width="270" height="90" as="geometry" />
        </mxCell>
        <mxCell id="zg37p6ZAchi9JQ2rwwaJ-37" value="" style="rounded=0;whiteSpace=wrap;html=1;" vertex="1" parent="1">
          <mxGeometry x="680" y="810" width="270" height="90" as="geometry" />
        </mxCell>
        <mxCell id="zg37p6ZAchi9JQ2rwwaJ-38" value="" style="rounded=0;whiteSpace=wrap;html=1;" vertex="1" parent="1">
          <mxGeometry x="680" y="900" width="270" height="80" as="geometry" />
        </mxCell>
        <mxCell id="zg37p6ZAchi9JQ2rwwaJ-39" value="MyA( ){ }&amp;nbsp;" style="rounded=0;whiteSpace=wrap;html=1;fillColor=#d5e8d4;strokeColor=#82b366;" vertex="1" parent="1">
          <mxGeometry x="680" y="720" width="270" height="40" as="geometry" />
        </mxCell>
        <mxCell id="zg37p6ZAchi9JQ2rwwaJ-40" value="int x = 0 ==&amp;gt; 10;" style="rounded=0;whiteSpace=wrap;html=1;" vertex="1" parent="1">
          <mxGeometry x="680" y="760" width="270" height="50" as="geometry" />
        </mxCell>
        <mxCell id="zg37p6ZAchi9JQ2rwwaJ-41" value="MyB( ){ }&amp;nbsp;" style="rounded=0;whiteSpace=wrap;html=1;fillColor=#d5e8d4;strokeColor=#82b366;" vertex="1" parent="1">
          <mxGeometry x="680" y="810" width="270" height="40" as="geometry" />
        </mxCell>
        <mxCell id="zg37p6ZAchi9JQ2rwwaJ-42" value="MyC( ){ }&amp;nbsp;" style="rounded=0;whiteSpace=wrap;html=1;fillColor=#d5e8d4;strokeColor=#82b366;" vertex="1" parent="1">
          <mxGeometry x="680" y="900" width="270" height="40" as="geometry" />
        </mxCell>
        <mxCell id="zg37p6ZAchi9JQ2rwwaJ-43" value="int x = 0 ==&amp;gt; 12;" style="rounded=0;whiteSpace=wrap;html=1;fillColor=#d5e8d4;strokeColor=#82b366;" vertex="1" parent="1">
          <mxGeometry x="680" y="760" width="270" height="50" as="geometry" />
        </mxCell>
        <mxCell id="zg37p6ZAchi9JQ2rwwaJ-44" value="this =&amp;nbsp;" style="rounded=0;whiteSpace=wrap;html=1;" vertex="1" parent="1">
          <mxGeometry x="50" y="1110" width="210" height="50" as="geometry" />
        </mxCell>
        <mxCell id="zg37p6ZAchi9JQ2rwwaJ-45" value="MyC( ) { }" style="rounded=0;whiteSpace=wrap;html=1;" vertex="1" parent="1">
          <mxGeometry x="-200" y="740" width="210" height="50" as="geometry" />
        </mxCell>
        <mxCell id="zg37p6ZAchi9JQ2rwwaJ-46" value="0XA10B" style="rounded=0;whiteSpace=wrap;html=1;fillColor=#ffe6cc;strokeColor=#d79b00;" vertex="1" parent="1">
          <mxGeometry x="680" y="690" width="140" height="30" as="geometry" />
        </mxCell>
        <mxCell id="zg37p6ZAchi9JQ2rwwaJ-48" style="edgeStyle=orthogonalEdgeStyle;rounded=0;orthogonalLoop=1;jettySize=auto;html=1;" edge="1" parent="1" source="zg37p6ZAchi9JQ2rwwaJ-47" target="zg37p6ZAchi9JQ2rwwaJ-46">
          <mxGeometry relative="1" as="geometry" />
        </mxCell>
        <mxCell id="zg37p6ZAchi9JQ2rwwaJ-49" value="" style="rounded=0;whiteSpace=wrap;html=1;" vertex="1" parent="1">
          <mxGeometry x="30" y="710" width="210" height="130" as="geometry" />
        </mxCell>
        <mxCell id="zg37p6ZAchi9JQ2rwwaJ-47" value="this =&amp;nbsp;" style="rounded=0;whiteSpace=wrap;html=1;" vertex="1" parent="1">
          <mxGeometry x="30" y="710" width="210" height="50" as="geometry" />
        </mxCell>
        <mxCell id="zg37p6ZAchi9JQ2rwwaJ-50" value="this =&amp;nbsp;" style="rounded=0;whiteSpace=wrap;html=1;" vertex="1" parent="1">
          <mxGeometry x="30" y="580" width="210" height="50" as="geometry" />
        </mxCell>
        <mxCell id="zg37p6ZAchi9JQ2rwwaJ-51" value="" style="rounded=0;whiteSpace=wrap;html=1;" vertex="1" parent="1">
          <mxGeometry x="30" y="580" width="210" height="130" as="geometry" />
        </mxCell>
        <mxCell id="zg37p6ZAchi9JQ2rwwaJ-52" value="this =&amp;nbsp;" style="rounded=0;whiteSpace=wrap;html=1;" vertex="1" parent="1">
          <mxGeometry x="30" y="450" width="210" height="50" as="geometry" />
        </mxCell>
        <mxCell id="zg37p6ZAchi9JQ2rwwaJ-53" value="" style="rounded=0;whiteSpace=wrap;html=1;" vertex="1" parent="1">
          <mxGeometry x="30" y="450" width="210" height="130" as="geometry" />
        </mxCell>
        <mxCell id="zg37p6ZAchi9JQ2rwwaJ-55" style="edgeStyle=orthogonalEdgeStyle;rounded=0;orthogonalLoop=1;jettySize=auto;html=1;" edge="1" parent="1" source="zg37p6ZAchi9JQ2rwwaJ-54">
          <mxGeometry relative="1" as="geometry">
            <mxPoint x="280" y="740" as="targetPoint" />
          </mxGeometry>
        </mxCell>
        <mxCell id="zg37p6ZAchi9JQ2rwwaJ-54" value="this =&amp;nbsp;" style="rounded=0;whiteSpace=wrap;html=1;" vertex="1" parent="1">
          <mxGeometry x="30" y="450" width="210" height="40" as="geometry" />
        </mxCell>
        <mxCell id="zg37p6ZAchi9JQ2rwwaJ-57" value="" style="rounded=0;whiteSpace=wrap;html=1;" vertex="1" parent="1">
          <mxGeometry x="30" y="320" width="210" height="130" as="geometry" />
        </mxCell>
        <mxCell id="zg37p6ZAchi9JQ2rwwaJ-59" style="edgeStyle=orthogonalEdgeStyle;rounded=0;orthogonalLoop=1;jettySize=auto;html=1;" edge="1" parent="1" source="zg37p6ZAchi9JQ2rwwaJ-58">
          <mxGeometry relative="1" as="geometry">
            <mxPoint x="260" y="740" as="targetPoint" />
          </mxGeometry>
        </mxCell>
        <mxCell id="zg37p6ZAchi9JQ2rwwaJ-58" value="this =&amp;nbsp;" style="rounded=0;whiteSpace=wrap;html=1;" vertex="1" parent="1">
          <mxGeometry x="30" y="320" width="210" height="40" as="geometry" />
        </mxCell>
      </root>
    </mxGraphModel>
  </diagram>
</mxfile>
